<svg 
 xmlns="http://www.w3.org/2000/svg"
 xmlns:xlink="http://www.w3.org/1999/xlink"
 width="0.861in" height="0.861in">
<path fill-rule="evenodd"  fill="rgb(102, 109, 137)"
 d="M31.000,41.000 C29.943,41.000 28.913,40.918 27.914,40.772 C27.230,41.605 24.286,44.476 21.161,44.988 C21.165,44.975 21.000,45.000 20.906,45.000 C20.405,45.000 20.000,44.595 20.000,44.094 C20.000,43.967 20.027,43.846 20.074,43.736 C20.074,43.736 20.073,43.736 20.072,43.736 C20.661,42.723 22.000,40.793 22.000,39.000 C22.000,38.971 22.008,38.953 22.008,38.926 C17.779,36.766 15.000,33.127 15.000,29.000 C15.000,22.373 22.163,17.000 31.000,17.000 C39.836,17.000 47.000,22.373 47.000,29.000 C47.000,35.627 39.836,41.000 31.000,41.000 ZM31.000,19.000 C23.280,19.000 17.000,23.486 17.000,29.000 C17.000,32.207 19.212,35.252 22.918,37.145 C23.587,37.486 24.008,38.175 24.008,38.926 C24.008,38.982 24.005,39.046 23.999,39.110 C23.979,40.144 23.673,41.148 23.283,42.042 C24.723,41.186 25.940,40.024 26.368,39.503 C26.751,39.036 27.320,38.771 27.914,38.771 C28.010,38.771 28.107,38.778 28.204,38.793 C29.143,38.931 30.083,39.000 31.000,39.000 C38.720,39.000 45.000,34.514 45.000,29.000 C45.000,23.486 38.720,19.000 31.000,19.000 ZM31.000,23.000 C25.673,23.000 21.000,25.804 21.000,29.000 C21.000,29.276 20.776,29.500 20.500,29.500 C20.224,29.500 20.000,29.276 20.000,29.000 C20.000,25.206 25.037,22.000 31.000,22.000 C31.276,22.000 31.500,22.224 31.500,22.500 C31.500,22.777 31.276,23.000 31.000,23.000 Z"/>
<path fill-rule="evenodd"  stroke="rgb(102, 109, 137)" stroke-width="2px" stroke-linecap="butt" stroke-linejoin="miter" fill="none"
 d="M30.500,1.000 C46.792,1.000 60.000,14.208 60.000,30.500 C60.000,46.792 46.792,60.000 30.500,60.000 C14.208,60.000 1.000,46.792 1.000,30.500 C1.000,14.208 14.208,1.000 30.500,1.000 Z"/>
</svg>