<svg xmlns="http://www.w3.org/2000/svg" viewBox="0 0 61 61" width="61" height="61">
	<style>
		tspan { white-space:pre }
		.shp0 { fill: #666d89 } 
		.shp1 { fill: none;stroke: #666d89;stroke-width: 2 } 
	</style>
	<g id="Bubble">
		<path id="bubble" class="shp0" d="M31 22C25.04 22 20 25.21 20 29C20 29.28 20.22 29.5 20.5 29.5C20.78 29.5 21 29.28 21 29C21 25.8 25.67 23 31 23C31.28 23 31.5 22.78 31.5 22.5C31.5 22.22 31.28 22 31 22ZM31 17C22.16 17 15 22.37 15 29C15 33.13 17.78 36.77 22.01 38.93C22.01 38.95 22 38.97 22 39C22 40.79 20.66 42.72 20.07 43.74C20.07 43.74 20.07 43.74 20.07 43.74C20.03 43.85 20 43.97 20 44.09C20 44.59 20.41 45 20.91 45C21 45 21.17 44.97 21.16 44.99C24.29 44.48 27.23 41.6 27.91 40.77C28.91 40.92 29.94 41 31 41C39.84 41 47 35.63 47 29C47 22.37 39.84 17 31 17ZM31 39C30.08 39 29.14 38.93 28.2 38.79C28.11 38.78 28.01 38.77 27.91 38.77C27.32 38.77 26.75 39.04 26.37 39.5C25.94 40.02 24.72 41.19 23.28 42.04C23.67 41.15 23.98 40.14 24 39.11C24 39.05 24.01 38.98 24.01 38.93C24.01 38.17 23.59 37.49 22.92 37.14C19.21 35.25 17 32.21 17 29C17 23.49 23.28 19 31 19C38.72 19 45 23.49 45 29C45 34.51 38.72 39 31 39Z" />
		<path id="Ellipse" class="shp1" d="M30.5 1C46.79 1 60 14.21 60 30.5C60 46.79 46.79 60 30.5 60C14.21 60 1 46.79 1 30.5C1 14.21 14.21 1 30.5 1Z" />
	</g>
</svg>