<svg 
 xmlns="http://www.w3.org/2000/svg"
 xmlns:xlink="http://www.w3.org/1999/xlink"
 width="0.861in" height="0.861in">
<path fill-rule="evenodd"  fill="rgb(102, 109, 137)"
 d="M36.969,37.078 C34.965,42.666 35.250,46.000 31.000,46.000 C26.813,46.000 27.034,42.651 25.031,37.055 C23.689,33.303 20.000,29.031 20.000,25.000 C20.000,18.925 24.925,14.000 31.000,14.000 C37.075,14.000 42.000,18.925 42.000,25.000 C42.000,29.000 38.316,33.319 36.969,37.078 ZM31.000,44.000 C32.181,44.000 32.628,43.873 33.241,42.220 L29.003,42.750 C29.521,43.884 29.987,44.000 31.000,44.000 ZM28.036,39.903 C28.267,40.684 28.457,41.283 28.634,41.796 L33.593,41.176 C33.703,40.821 33.821,40.431 33.952,39.982 C34.033,39.704 34.128,39.394 34.216,39.098 L28.027,39.871 C28.029,39.881 28.033,39.893 28.036,39.903 ZM27.736,38.908 L34.535,38.059 C34.642,37.719 34.765,37.360 34.887,37.000 L27.121,37.000 C27.350,37.672 27.555,38.307 27.736,38.908 ZM31.000,16.000 C26.037,16.000 22.000,20.037 22.000,25.000 C22.000,27.033 23.349,29.448 24.653,31.783 C25.243,32.840 25.841,33.921 26.339,35.000 L35.672,35.000 C36.167,33.926 36.760,32.849 37.345,31.795 C38.650,29.446 40.000,27.018 40.000,25.000 C40.000,20.037 35.963,16.000 31.000,16.000 ZM31.000,20.000 C28.243,20.000 26.000,22.243 26.000,25.000 C26.000,25.276 25.776,25.500 25.500,25.500 C25.224,25.500 25.000,25.276 25.000,25.000 C25.000,21.691 27.691,19.000 31.000,19.000 C31.276,19.000 31.500,19.224 31.500,19.500 C31.500,19.777 31.276,20.000 31.000,20.000 Z"/>
<path fill-rule="evenodd"  stroke="rgb(102, 109, 137)" stroke-width="2px" stroke-linecap="butt" stroke-linejoin="miter" fill="none"
 d="M30.500,1.000 C46.792,1.000 60.000,14.208 60.000,30.500 C60.000,46.792 46.792,60.000 30.500,60.000 C14.208,60.000 1.000,46.792 1.000,30.500 C1.000,14.208 14.208,1.000 30.500,1.000 Z"/>
</svg>