<svg xmlns="http://www.w3.org/2000/svg" viewBox="0 0 61 61" width="61" height="61">
	<style>
		tspan { white-space:pre }
        .shp1:hover{ fill: #000000}
		.shp0 { fill: #666d89 } 
		.shp1 { fill: none;stroke: #666d89;stroke-width: 2 } 
	</style>
	<g id="Bulb">
		<path id="bulb" class="shp0" d="M31 14C24.92 14 20 18.92 20 25C20 29.03 23.69 33.3 25.03 37.05C27.03 42.65 26.81 46 31 46C35.25 46 34.96 42.67 36.97 37.08C38.32 33.32 42 29 42 25C42 18.92 37.08 14 31 14ZM33.59 41.18L28.63 41.8C28.46 41.28 28.27 40.68 28.04 39.9C28.03 39.89 28.03 39.88 28.03 39.87L34.22 39.1C34.13 39.39 34.03 39.7 33.95 39.98C33.82 40.43 33.7 40.82 33.59 41.18ZM27.74 38.91C27.55 38.31 27.35 37.67 27.12 37L34.89 37C34.76 37.36 34.64 37.72 34.54 38.06L27.74 38.91ZM31 44C29.99 44 29.52 43.88 29 42.75L33.24 42.22C32.63 43.87 32.18 44 31 44ZM35.67 35L26.34 35C25.84 33.92 25.24 32.84 24.65 31.78C23.35 29.45 22 27.03 22 25C22 20.04 26.04 16 31 16C35.96 16 40 20.04 40 25C40 27.02 38.65 29.45 37.34 31.8C36.76 32.85 36.17 33.93 35.67 35ZM31 19C27.69 19 25 21.69 25 25C25 25.28 25.22 25.5 25.5 25.5C25.78 25.5 26 25.28 26 25C26 22.24 28.24 20 31 20C31.28 20 31.5 19.78 31.5 19.5C31.5 19.22 31.28 19 31 19Z" />
		<path id="Ellipse" class="shp1" d="M30.5 1C46.79 1 60 14.21 60 30.5C60 46.79 46.79 60 30.5 60C14.21 60 1 46.79 1 30.5C1 14.21 14.21 1 30.5 1Z" />
	</g>
</svg>