<svg width="21" height="26" viewBox="0 0 21 26" fill="none" xmlns="http://www.w3.org/2000/svg">
<path fill-rule="evenodd" clip-rule="evenodd" d="M19.3 0.5C19.9627 0.5 20.5 1.03726 20.5 1.7L20.5 24.3C20.5 24.9627 19.9627 25.5 19.3 25.5C18.6373 25.5 18.1 24.9627 18.1 24.3L18.1 1.7C18.1 1.03726 18.6373 0.5 19.3 0.5ZM10.5 0.5C11.1627 0.5 11.7 1.03726 11.7 1.7L11.7 24.3C11.7 24.9627 11.1627 25.5 10.5 25.5C9.83726 25.5 9.3 24.9627 9.3 24.3L9.3 1.7C9.3 1.03726 9.83726 0.5 10.5 0.5ZM2.90001 1.7C2.90001 1.03726 2.36275 0.499999 1.7 0.499999C1.03726 0.499999 0.5 1.03726 0.5 1.7L0.499999 24.3C0.499999 24.9627 1.03726 25.5 1.7 25.5C2.36274 25.5 2.9 24.9627 2.9 24.3L2.90001 1.7Z" fill="white"/>
</svg>
