<svg xmlns="http://www.w3.org/2000/svg" viewBox="0 0 61 61" width="61" height="61">
	<style>
		tspan { white-space:pre }
		.shp0 { fill: #666d89 } 
		.shp1 { fill: none;stroke: #666d89;stroke-width: 2 } 
	</style>
	<g id="Heart">
		<path id="heart" class="shp0" d="M44.19 19.79C40.56 16.2 34.76 16.13 31 19.5C27.24 16.13 21.44 16.2 17.81 19.79C14.07 23.49 14.07 29.49 17.81 33.19C18.88 34.25 28.86 44.12 28.86 44.12C30.04 45.29 31.96 45.29 33.14 44.12C33.14 44.12 44.07 33.31 44.19 33.19C47.93 29.49 47.93 23.49 44.19 19.79ZM42.77 31.78L31.71 42.71C31.32 43.1 30.68 43.1 30.29 42.71L19.24 31.78C16.28 28.86 16.28 24.12 19.24 21.2C22.08 18.39 26.65 18.29 29.64 20.98L31 22.2L32.36 20.98C35.35 18.29 39.92 18.39 42.77 21.2C45.72 24.12 45.72 28.86 42.77 31.78ZM24.25 22.03C24.25 22.03 24.25 22.03 24.25 22.03C21.9 22.03 20 23.93 20 26.27L20 26.27C20 26.55 20.23 26.77 20.5 26.77C20.78 26.77 21 26.55 21 26.27L21 26.27C21 24.48 22.46 23.03 24.25 23.03L24.25 23.03C24.53 23.03 24.75 22.8 24.75 22.53C24.75 22.25 24.53 22.03 24.25 22.03Z" />
		<path id="Ellipse" class="shp1" d="M30.5 1C46.79 1 60 14.21 60 30.5C60 46.79 46.79 60 30.5 60C14.21 60 1 46.79 1 30.5C1 14.21 14.21 1 30.5 1Z" />
	</g>
</svg>