<svg xmlns="http://www.w3.org/2000/svg" viewBox="0 0 43 43" width="43" height="43">
	<style>
		tspan { white-space:pre; }
		.shp0 { fill: #AAA; } 
		.shp1 { fill: #DE3163}
	</style>
	<g id="Home Button">
		<path id="Circle" class="shp0" d="M42.19 21.19C42.19 32.75 32.85 42.12 21.32 42.12C9.79 42.12 0.44 32.75 0.44 21.19C0.44 9.63 9.79 0.26 21.32 0.26C32.85 0.26 42.19 9.63 42.19 21.19Z" />
		<path id="Square" fill-rule="evenodd" class="shp1" d="M29.51 16.88L29.51 25.7C29.51 27.75 27.84 29.42 25.79 29.42L17 29.42C14.95 29.42 13.28 27.75 13.28 25.7L13.28 16.88C13.28 14.82 14.95 13.16 17 13.16L25.79 13.16C27.84 13.16 29.51 14.82 29.51 16.88ZM24.86 14.87L17.94 14.87C16.33 14.87 15.02 16.18 15.02 17.8L15.02 24.75C15.02 26.36 16.33 27.67 17.94 27.67L24.86 27.67C26.48 27.67 27.79 26.36 27.79 24.75L27.79 17.8C27.79 16.18 26.48 14.87 24.86 14.87Z" />
	</g>
</svg>