<svg xmlns="http://www.w3.org/2000/svg" viewBox="0 0 61 61" width="61" height="61">
	<style>
		tspan { white-space:pre }
		.shp0 { fill: #666d89 } 
		.shp1 { fill: none;stroke: #666d89;stroke-width: 2 } 
	</style>
	<g id="Pen">
		<path id="pen" class="shp0" d="M44.4 17.58C42.75 15.94 40.59 15 38.45 15C36.65 15 34.99 15.67 33.78 16.88L28.91 21.78C28.9 21.79 28.88 21.8 28.87 21.82C28.86 21.83 28.85 21.84 28.85 21.85L28.85 21.85L18.52 32.26C18.04 32.73 17.7 33.32 17.5 33.96L15.16 42.47C15.15 42.49 15 43.16 15 43.5C15 45.43 16.57 47 18.5 47C18.89 47 19.63 46.82 19.66 46.81L28.14 44.58C28.78 44.39 29.37 44.04 29.84 43.57L45.11 28.19C47.88 25.41 47.57 20.75 44.4 17.58ZM31.01 38.8C30.93 37.89 30.68 37.01 30.3 36.17L39.75 26.71C40.33 28.54 40.03 30.45 38.76 31.72C38.76 31.73 38.75 31.73 38.74 31.74L38.75 31.75L31.02 39.54C31.03 39.29 31.04 39.05 31.01 38.8ZM29.79 35.26C29.42 34.64 29 34.05 28.47 33.53C27.86 32.92 27.16 32.44 26.43 32.04L35.96 22.5C36.71 22.84 37.42 23.31 38.06 23.94C38.6 24.48 39.02 25.08 39.34 25.71L29.79 35.26ZM25.49 31.56C24.56 31.19 23.59 30.98 22.62 30.96L30.32 23.2C31.5 22.05 33.22 21.72 34.91 22.14L25.49 31.56ZM19.17 44.87C19.06 44.9 18.72 44.98 18.49 45C17.67 44.99 17 44.32 17 43.5C17.01 43.33 17.08 43.04 17.1 42.94L18.15 39.12C19.3 39.09 20.53 39.54 21.49 40.51C22.48 41.49 22.94 42.74 22.89 43.9L19.17 44.87ZM23.87 43.64C23.85 42.3 23.3 40.9 22.2 39.8C21.16 38.76 19.8 38.15 18.44 38.1L19.43 34.49C19.5 34.25 19.65 34.02 19.82 33.81C21.83 32.37 24.91 32.8 27.06 34.94C29.32 37.21 29.67 40.53 27.93 42.51C27.81 42.57 27.7 42.63 27.57 42.67L23.87 43.64ZM43.69 26.77L42.01 28.47C42.01 28.24 42.04 28.03 42.01 27.8C41.84 25.86 40.94 23.99 39.47 22.53C37.84 20.9 35.68 19.96 33.54 19.96L35.2 18.29C36.03 17.46 37.18 17 38.45 17C40.06 17 41.71 17.73 42.98 19C44.18 20.19 44.89 21.67 44.99 23.16C45.08 24.56 44.62 25.84 43.69 26.77Z" />
		<path id="Ellipse" class="shp1" d="M30.5 1C46.79 1 60 14.21 60 30.5C60 46.79 46.79 60 30.5 60C14.21 60 1 46.79 1 30.5C1 14.21 14.21 1 30.5 1Z" />
	</g>
</svg>