<svg 
 xmlns="http://www.w3.org/2000/svg"
 xmlns:xlink="http://www.w3.org/1999/xlink"
 width="0.861in" height="0.861in">
<path fill-rule="evenodd"  fill="rgb(102, 109, 137)"
 d="M44.396,17.580 C42.750,15.938 40.585,15.000 38.449,15.000 C36.649,15.000 34.990,15.668 33.780,16.877 L28.913,21.781 C28.898,21.795 28.881,21.805 28.866,21.819 C28.858,21.827 28.854,21.838 28.846,21.846 L28.848,21.848 L18.518,32.256 C18.042,32.728 17.696,33.319 17.505,33.961 L15.156,42.469 C15.153,42.492 15.000,43.161 15.000,43.500 C15.000,45.433 16.569,47.000 18.505,47.000 C18.890,47.000 19.635,46.817 19.662,46.813 L28.140,44.584 C28.783,44.393 29.369,44.045 29.845,43.568 L45.107,28.186 C47.884,25.406 47.571,20.750 44.396,17.580 ZM31.015,38.796 C30.933,37.893 30.678,37.008 30.296,36.168 L39.750,26.715 C40.328,28.541 40.032,30.451 38.765,31.719 C38.757,31.727 38.747,31.731 38.739,31.739 L38.752,31.752 L31.024,39.541 C31.025,39.293 31.037,39.049 31.015,38.796 ZM29.794,35.256 C29.421,34.643 28.997,34.052 28.472,33.528 C27.860,32.916 27.159,32.438 26.428,32.035 L35.960,22.504 C36.707,22.836 37.425,23.309 38.058,23.941 C38.598,24.481 39.017,25.084 39.338,25.712 L29.794,35.256 ZM25.486,31.563 C24.561,31.190 23.590,30.977 22.618,30.964 L30.321,23.202 C31.500,22.052 33.218,21.721 34.909,22.141 L25.486,31.563 ZM19.168,44.873 C19.059,44.899 18.720,44.985 18.489,45.000 C17.667,44.991 17.000,44.322 17.000,43.500 C17.012,43.333 17.079,43.044 17.102,42.937 L18.154,39.123 C19.297,39.092 20.527,39.537 21.494,40.506 C22.477,41.487 22.939,42.741 22.888,43.897 L19.168,44.873 ZM23.874,43.637 C23.850,42.296 23.304,40.900 22.202,39.800 C21.160,38.756 19.797,38.154 18.437,38.101 L19.433,34.493 C19.505,34.253 19.647,34.017 19.823,33.809 C21.829,32.373 24.914,32.797 27.058,34.942 C29.324,37.208 29.675,40.528 27.929,42.510 C27.813,42.570 27.695,42.629 27.569,42.667 L23.874,43.637 ZM43.692,26.773 L42.008,28.470 C42.008,28.244 42.035,28.027 42.015,27.796 C41.839,25.861 40.936,23.990 39.472,22.527 C37.843,20.898 35.682,19.962 33.543,19.956 L35.200,18.286 C36.027,17.459 37.184,17.000 38.449,17.000 C40.060,17.000 41.712,17.728 42.982,18.995 C44.176,20.186 44.888,21.666 44.988,23.163 C45.082,24.561 44.622,25.842 43.692,26.773 Z"/>
<path fill-rule="evenodd"  stroke="rgb(102, 109, 137)" stroke-width="2px" stroke-linecap="butt" stroke-linejoin="miter" fill="none"
 d="M30.500,1.000 C46.792,1.000 60.000,14.208 60.000,30.500 C60.000,46.792 46.792,60.000 30.500,60.000 C14.208,60.000 1.000,46.792 1.000,30.500 C1.000,14.208 14.208,1.000 30.500,1.000 Z"/>
</svg>