<svg 
 xmlns="http://www.w3.org/2000/svg"
 xmlns:xlink="http://www.w3.org/1999/xlink"
 width="0.861in" height="0.861in">
<path fill-rule="evenodd"  fill="rgb(102, 109, 137)"
 d="M39.000,46.999 L23.000,47.001 C21.343,47.001 20.000,45.658 20.000,44.001 L20.000,18.001 C20.000,16.343 21.343,15.000 23.000,15.000 L39.000,15.000 C40.657,15.000 42.000,16.342 42.000,18.000 L42.000,44.000 C42.000,45.657 40.657,46.999 39.000,46.999 ZM40.000,18.000 C40.000,17.448 39.552,17.000 39.000,17.000 L23.000,17.001 C22.448,17.001 22.000,17.449 22.000,18.001 L22.000,20.001 L40.000,20.000 L40.000,18.000 ZM40.000,21.000 L22.000,21.000 L22.000,40.997 L40.000,40.996 L40.000,21.000 ZM40.000,41.996 L22.000,41.997 L22.000,44.001 C22.000,44.552 22.448,45.001 23.000,45.001 L39.000,44.999 C39.552,44.999 40.000,44.551 40.000,44.000 L40.000,41.996 ZM31.500,43.996 L30.500,43.996 C30.224,43.996 30.000,43.772 30.000,43.496 C30.000,43.219 30.224,42.996 30.500,42.996 L31.500,42.996 C31.776,42.996 32.000,43.219 32.000,43.496 C32.000,43.772 31.776,43.996 31.500,43.996 ZM29.500,18.000 L32.500,18.000 C32.776,18.000 33.000,18.223 33.000,18.500 C33.000,18.776 32.776,19.000 32.500,19.000 L29.500,19.000 C29.224,19.000 29.000,18.776 29.000,18.500 C29.000,18.223 29.224,18.000 29.500,18.000 Z"/>
<path fill-rule="evenodd"  stroke="rgb(102, 109, 137)" stroke-width="2px" stroke-linecap="butt" stroke-linejoin="miter" fill="none"
 d="M30.500,1.000 C46.792,1.000 60.000,14.208 60.000,30.500 C60.000,46.792 46.792,60.000 30.500,60.000 C14.208,60.000 1.000,46.792 1.000,30.500 C1.000,14.208 14.208,1.000 30.500,1.000 Z"/>
</svg>