<svg xmlns="http://www.w3.org/2000/svg" viewBox="0 0 61 61" width="61" height="61">
	<style>
		tspan { white-space:pre }
		.shp0 { fill: #666d89 } 
		.shp1 { fill: none;stroke: #666d89;stroke-width: 2 } 
	</style>
	<g id="Phone">
		<path id="phone" class="shp0" d="M39 15L23 15C21.34 15 20 16.34 20 18L20 44C20 45.66 21.34 47 23 47L39 47C40.66 47 42 45.66 42 44L42 18C42 16.34 40.66 15 39 15ZM40 44C40 44.55 39.55 45 39 45L23 45C22.45 45 22 44.55 22 44L22 42L40 42L40 44ZM40 41L22 41L22 21L40 21L40 41ZM40 20L22 20L22 18C22 17.45 22.45 17 23 17L39 17C39.55 17 40 17.45 40 18L40 20ZM33 18.5C33 18.78 32.78 19 32.5 19L29.5 19C29.22 19 29 18.78 29 18.5L29 18.5C29 18.22 29.22 18 29.5 18L32.5 18C32.78 18 33 18.22 33 18.5L33 18.5ZM32 43.5C32 43.77 31.78 44 31.5 44L30.5 44C30.22 44 30 43.77 30 43.5L30 43.5C30 43.22 30.22 43 30.5 43L31.5 43C31.78 43 32 43.22 32 43.5L32 43.5Z" />
		<path id="Ellipse" class="shp1" d="M30.5 1C46.79 1 60 14.21 60 30.5C60 46.79 46.79 60 30.5 60C14.21 60 1 46.79 1 30.5C1 14.21 14.21 1 30.5 1Z" />
	</g>
</svg>