<svg 
 xmlns="http://www.w3.org/2000/svg"
 xmlns:xlink="http://www.w3.org/1999/xlink"
 width="0.861in" height="0.861in">
<path fill-rule="evenodd"  fill="rgb(102, 109, 137)"
 d="M46.881,26.557 C46.604,25.758 45.893,25.173 45.038,25.046 L36.712,23.808 L33.092,16.294 C32.712,15.505 31.896,15.000 31.000,15.000 C30.104,15.000 29.289,15.505 28.908,16.294 L25.289,23.808 L16.962,25.046 C16.106,25.173 15.395,25.758 15.120,26.557 C14.844,27.357 15.052,28.239 15.657,28.842 L21.759,34.935 L20.344,43.386 C20.200,44.236 20.569,45.091 21.292,45.589 C21.689,45.861 22.156,46.000 22.623,46.000 C23.007,46.000 23.391,45.906 23.741,45.720 L31.000,41.812 L38.260,45.720 C38.609,45.906 38.994,46.000 39.377,46.000 C39.844,46.000 40.310,45.861 40.709,45.589 C41.431,45.091 41.800,44.236 41.657,43.386 L40.241,34.935 L46.344,28.842 C46.948,28.239 47.155,27.357 46.881,26.557 ZM38.588,33.363 C38.076,33.874 37.844,34.592 37.962,35.297 L39.377,43.749 L32.118,39.842 C31.769,39.654 31.385,39.561 31.000,39.561 C30.616,39.561 30.231,39.654 29.883,39.842 L22.623,43.749 L24.039,35.297 C24.157,34.592 23.925,33.874 23.413,33.363 L17.311,27.272 L25.637,26.031 C26.398,25.918 27.053,25.443 27.381,24.764 L31.000,17.251 L34.620,24.764 C34.947,25.443 35.601,25.918 36.362,26.031 L44.689,27.272 L38.588,33.363 Z"/>
<path fill-rule="evenodd"  stroke="rgb(102, 109, 137)" stroke-width="2px" stroke-linecap="butt" stroke-linejoin="miter" fill="none"
 d="M30.500,1.000 C46.792,1.000 60.000,14.208 60.000,30.500 C60.000,46.792 46.792,60.000 30.500,60.000 C14.208,60.000 1.000,46.792 1.000,30.500 C1.000,14.208 14.208,1.000 30.500,1.000 Z"/>
</svg>