<svg xmlns="http://www.w3.org/2000/svg" viewBox="0 0 61 61" width="61" height="61">
	<style>
		tspan { white-space:pre }
		.shp0 { fill: #666d89 } 
		.shp1 { fill: none;stroke: #666d89;stroke-width: 2 } 
	</style>
	<g id="Star">
		<path id="star" class="shp0" d="M46.88 26.56C46.6 25.76 45.89 25.17 45.04 25.05L36.71 23.81L33.09 16.29C32.71 15.51 31.9 15 31 15C30.1 15 29.29 15.51 28.91 16.29L25.29 23.81L16.96 25.05C16.11 25.17 15.4 25.76 15.12 26.56C14.84 27.36 15.05 28.24 15.66 28.84L21.76 34.93L20.34 43.39C20.2 44.24 20.57 45.09 21.29 45.59C21.69 45.86 22.16 46 22.62 46C23.01 46 23.39 45.91 23.74 45.72L31 41.81L38.26 45.72C38.61 45.91 38.99 46 39.38 46C39.84 46 40.31 45.86 40.71 45.59C41.43 45.09 41.8 44.24 41.66 43.39L40.24 34.93L46.34 28.84C46.95 28.24 47.16 27.36 46.88 26.56ZM38.59 33.36C38.08 33.87 37.84 34.59 37.96 35.3L39.38 43.75L32.12 39.84C31.77 39.65 31.38 39.56 31 39.56C30.62 39.56 30.23 39.65 29.88 39.84L22.62 43.75L24.04 35.3C24.16 34.59 23.92 33.87 23.41 33.36L17.31 27.27L25.64 26.03C26.4 25.92 27.05 25.44 27.38 24.76L31 17.25L34.62 24.76C34.95 25.44 35.6 25.92 36.36 26.03L44.69 27.27L38.59 33.36Z" />
		<path id="Ellipse" class="shp1" d="M30.5 1C46.79 1 60 14.21 60 30.5C60 46.79 46.79 60 30.5 60C14.21 60 1 46.79 1 30.5C1 14.21 14.21 1 30.5 1Z" />
	</g>
</svg>